<?xml version="1.0" standalone="no"?>
<!DOCTYPE svg PUBLIC "-//W3C//DTD SVG 20010904//EN"
 "http://www.w3.org/TR/2001/REC-SVG-20010904/DTD/svg10.dtd">
<svg version="1.0" xmlns="http://www.w3.org/2000/svg"
 width="700.000000pt" height="700.000000pt" viewBox="0 0 700.000000 700.000000"
 preserveAspectRatio="xMidYMid meet">
<metadata>
Created by potrace 1.14, written by Peter Selinger 2001-2017
</metadata>
<g transform="translate(0.000000,700.000000) scale(0.100000,-0.100000)"
fill="#000000" stroke="none">
<path d="M660 6986 c-309 -69 -554 -302 -637 -606 -17 -62 -18 -214 -18 -2880
0 -2666 1 -2818 18 -2880 77 -284 303 -511 592 -597 57 -17 208 -18 2855 -21
l2795 -3 91 21 c309 70 554 315 624 624 l21 91 -3 2795 c-3 2647 -4 2798 -21
2855 -85 287 -305 507 -592 592 -57 17 -206 18 -2865 20 -2184 1 -2817 -2
-2860 -11z m5635 -341 c32 -9 81 -28 109 -43 65 -34 164 -133 198 -198 62
-116 58 94 58 -2904 0 -2998 4 -2788 -58 -2904 -34 -65 -133 -164 -198 -198
-116 -62 94 -58 -2904 -58 -2998 0 -2788 -4 -2904 58 -65 34 -164 133 -198
198 -62 116 -58 -94 -58 2904 0 2998 -4 2788 58 2904 35 65 133 164 198 198
113 61 -90 57 2899 57 2432 1 2747 -1 2800 -14z"/>
<path d="M2939 6170 c-180 -31 -289 -183 -289 -401 0 -120 28 -198 98 -269 47
-48 68 -61 117 -75 73 -22 177 -15 261 16 275 103 304 572 42 698 -70 33 -154
44 -229 31z"/>
<path d="M4287 6170 c-191 -34 -312 -233 -285 -468 9 -80 36 -139 88 -196 65
-70 117 -91 225 -91 145 1 236 44 303 145 105 157 95 388 -23 518 -68 77 -190
113 -308 92z"/>
<path d="M3511 5024 c-302 -41 -572 -143 -827 -313 -150 -100 -278 -212 -377
-330 -254 -302 -405 -644 -469 -1055 -28 -185 -31 -572 -4 -771 123 -939 626
-1532 1431 -1689 154 -30 262 -39 470 -38 304 0 475 27 830 128 104 30 226 60
269 67 l80 13 67 393 c45 269 63 394 55 397 -10 3 -321 44 -337 44 -4 0 -60
-123 -124 -274 l-117 -273 -67 -44 c-149 -98 -330 -139 -616 -139 -252 0 -411
38 -586 142 -91 54 -231 186 -314 296 -214 286 -348 729 -375 1244 -26 505 53
961 222 1278 122 229 290 406 488 513 83 45 214 91 310 108 91 16 359 16 480
0 178 -25 394 -94 432 -138 8 -11 41 -154 78 -343 34 -179 67 -335 71 -347 8
-23 11 -23 189 -23 135 0 182 3 185 13 5 13 55 880 55 951 l0 42 -237 47
c-298 58 -448 82 -635 102 -181 18 -486 18 -627 -1z"/>
</g>
</svg>
